<?xml version="1.0" encoding="UTF-8"?>
<svg version="1.1" xmlns="http://www.w3.org/2000/svg" width="500" height="500">
<path d="M0 0 C1.9921875 1.34765625 1.9921875 1.34765625 3.875 3.0625 C4.49117188 3.61035156 5.10734375 4.15820312 5.7421875 4.72265625 C7.69848443 6.69587617 9.49611236 8.71394086 11.3046875 10.8203125 C14.72620819 14.76664812 18.39719855 18.29359842 22.25 21.8125 C31.61296166 30.48024003 40.58612703 39.5262119 49.55761719 48.5949707 C50.12155685 49.16310486 50.68549652 49.73123901 51.26652527 50.31658936 C52.31711222 51.37512518 53.36559485 52.4357564 54.41133118 53.49908447 C57.15168561 56.25787821 59.96888517 58.87044537 62.91235352 61.41235352 C66.95540791 64.91426529 70.73618012 68.62424713 74.4921875 72.4296875 C75.16420197 73.10548859 75.83621643 73.78128967 76.52859497 74.47756958 C78.64654199 76.60760241 80.76117003 78.7408819 82.875 80.875 C85.68204089 83.70858202 88.49234838 86.53886508 91.3046875 89.3671875 C91.94735565 90.01815399 92.5900238 90.66912048 93.25216675 91.33981323 C93.84683746 91.93778717 94.44150818 92.53576111 95.05419922 93.15185547 C95.83741043 93.94292191 95.83741043 93.94292191 96.63644409 94.74996948 C97.99895469 96.11396113 97.99895469 96.11396113 100 97 C100 97.66 100 98.32 100 99 C100.89369797 99.4052314 100.89369797 99.4052314 101.80545044 99.81864929 C103.98652414 100.99274579 105.38328135 102.14660851 107.11279297 103.90161133 C107.69374725 104.48594437 108.27470154 105.0702774 108.8732605 105.6723175 C109.49000641 106.30252304 110.10675232 106.93272858 110.7421875 107.58203125 C111.38817902 108.23322433 112.03417053 108.88441742 112.69973755 109.55534363 C114.76297048 111.63636493 116.81940467 113.72393621 118.875 115.8125 C120.92427535 117.88950737 122.9750277 119.96499898 125.02883911 122.03752136 C126.30501206 123.32582425 127.57850382 124.61679059 128.84884644 125.9108429 C131.61071243 128.70342365 134.37120428 131.35398145 137.43798828 133.8112793 C138.28345215 134.53355713 139.12891602 135.25583496 140 136 C140 136.66 140 137.32 140 138 C140.66 138 141.32 138 142 138 C142 138.66 142 139.32 142 140 C142.55429687 140.22816406 143.10859375 140.45632812 143.6796875 140.69140625 C146.65951494 142.37194866 148.7279712 144.50111699 151.125 146.9375 C152.42824219 148.25041016 152.42824219 148.25041016 153.7578125 149.58984375 C156 152 156 152 158 155 C157.78411216 159.45448584 156.06880661 161.35146235 152.875 164.3125 C149.91710465 167.13488356 147.08990267 169.95067424 144.4375 173.0625 C141.44282544 176.5551343 138.24562463 179.77353883 134.96875 183 C133.06013545 184.93891002 131.27289448 186.93699551 129.5 189 C127.10323412 191.78896393 124.62040609 194.41990785 122 197 C119.44130741 199.51955389 117.01829389 202.08118782 114.6875 204.8125 C111.77747684 208.20197778 108.67815654 211.36424751 105.5 214.5 C101.115836 218.8315214 96.99027972 223.30499307 93 228 C91.68951411 229.50175996 90.37704212 231.00178932 89.0625 232.5 C88.04154928 233.66656395 87.02069559 234.83321282 86 236 C91.30327297 243.67995945 97.80265964 249.99660911 104.4375 256.5 C106.64798491 258.67360609 108.8551489 260.85050738 111.05859375 263.03125 C111.58560883 263.55267578 112.1126239 264.07410156 112.65560913 264.61132812 C116.1196636 268.06185247 119.3999874 271.62143477 122.57055664 275.34570312 C124.59465574 277.68819595 126.78287212 279.84121759 129 282 C131.84863007 284.81456574 134.60529312 287.62735252 137.1875 290.6875 C139.56068982 293.49740272 142.08195899 296.0741243 144.73046875 298.62109375 C145.74814331 299.60686401 145.74814331 299.60686401 146.78637695 300.61254883 C148.15848326 301.93461455 149.54090962 303.24606829 150.93432617 304.5456543 C153.81696847 307.3321721 155.75622967 309.38981713 157.2578125 313.1484375 C156.88597965 317.26113421 155.10389858 318.35123054 152 321 C150.97337696 322.01896912 149.95677914 323.04811526 148.94921875 324.0859375 C143.78049667 329.30500938 138.62894074 334.44127811 133.0234375 339.1953125 C129.90593415 341.97578846 127.00698437 344.97236493 124.07470703 347.94482422 C120.78602109 351.26098265 117.37812102 354.36014059 113.828125 357.390625 C111.39126247 359.53589714 109.14353053 361.84422368 106.87060547 364.16040039 C105.08120418 365.9201418 103.23938359 367.56434649 101.3359375 369.19921875 C96.82262335 373.12316184 92.46800844 377.2018806 88.125 381.3125 C86.98804688 382.38467773 86.98804688 382.38467773 85.828125 383.47851562 C81.87774965 387.20178523 81.87774965 387.20178523 78 391 C74.10725275 391.15217549 72.06346373 390.80054559 68.93017578 388.44189453 C66.72252949 386.38519841 64.63440427 384.25572345 62.5625 382.0625 C61.83095703 381.32064453 61.09941406 380.57878906 60.34570312 379.81445312 C55 374.30902778 55 374.30902778 55 372 C53.68 371.34 52.36 370.68 51 370 C51 369.34 51 368.68 51 368 C50.34 368 49.68 368 49 368 C47.61485481 366.59485054 47.61485481 366.59485054 45.98196411 364.61306763 C41.66776 359.54475964 37.00664105 354.88139093 32.28857422 350.19091797 C31.32992516 349.23419267 30.37150691 348.27723605 29.41329956 347.32006836 C27.36480855 345.27471572 25.31478041 343.23092133 23.26351547 341.18835068 C20.01591674 337.95437606 16.77222675 334.71649947 13.52908325 331.47805786 C6.64736106 324.6073904 -0.23859854 317.74097699 -7.125 310.875 C-14.56846629 303.45359427 -22.0111798 296.03144256 -29.44902027 288.60439789 C-32.6692787 285.38910291 -35.89195467 282.17625734 -39.11654305 278.96530509 C-41.12433565 276.96499983 -43.1300291 274.96259972 -45.1351738 272.9596405 C-46.50055969 271.59700237 -47.86846117 270.23688634 -49.2364502 268.87686157 C-53.38324422 264.73042347 -57.32410551 260.56831259 -61 256 C-65.29080795 251.51788214 -69.9609737 247.53071769 -74.671875 243.5 C-77.15250433 240.83623696 -78.02334655 239.62455199 -78 236 C-76.8125 234.04296875 -76.8125 234.04296875 -75 232.1875 C-74.35289062 231.50429687 -73.70578125 230.82109375 -73.0390625 230.1171875 C-72.02972656 229.06917969 -72.02972656 229.06917969 -71 228 C-69.784638 226.61028227 -68.5760492 225.2146059 -67.375 223.8125 C-64.71709457 220.73321932 -61.88280248 217.8660956 -59 215 C-58.19110825 214.19486214 -58.19110825 214.19486214 -57.36587524 213.37345886 C-56.15546538 212.16874749 -54.94488447 210.96420798 -53.73416138 209.7598114 C-50.93273593 206.97186079 -48.13403894 204.18117767 -45.33544922 201.39038086 C-43.86629816 199.92626003 -42.39625103 198.46303779 -40.92529297 197.00073242 C-38.78371444 194.87139011 -36.64547668 192.73873984 -34.5078125 190.60546875 C-33.85966583 189.96248337 -33.21151917 189.31949799 -32.54373169 188.6570282 C-28.72461508 184.83837387 -25.1014983 180.90873203 -21.59384155 176.80152893 C-18.57205259 173.38598224 -15.19756106 170.3041052 -11.8359375 167.2265625 C-10.08313971 165.59917903 -10.08313971 165.59917903 -8 163 C-7.95598514 160.30531252 -8.68202259 159.39539799 -10.34765625 157.32421875 C-10.91355469 156.78410156 -11.47945313 156.24398437 -12.0625 155.6875 C-12.88427734 154.88892578 -12.88427734 154.88892578 -13.72265625 154.07421875 C-15.68439369 152.28745618 -17.67748447 150.55352385 -19.68725586 148.8215332 C-23.71936914 145.29583013 -27.52076486 141.59274995 -31.28125 137.78125 C-31.93903442 137.11967896 -32.59681885 136.45810791 -33.27453613 135.77648926 C-36.05066558 132.98421856 -38.82071537 130.18594584 -41.59130859 127.38818359 C-43.6316708 125.32959102 -45.67514331 123.27412097 -47.71875 121.21875 C-48.63630066 120.28875183 -48.63630066 120.28875183 -49.5723877 119.33996582 C-53.32276501 115.56874036 -57.20670137 112.02004078 -61.23147583 108.54367065 C-63.19747245 106.82763457 -65.0608078 105.03988119 -66.88671875 103.17578125 C-67.51513672 102.53962891 -68.14355469 101.90347656 -68.79101562 101.24804688 C-69.41685547 100.60931641 -70.04269531 99.97058594 -70.6875 99.3125 C-71.95976988 98.01450171 -73.23445338 96.71886414 -74.51171875 95.42578125 C-75.40189697 94.52206787 -75.40189697 94.52206787 -76.31005859 93.60009766 C-78.12052939 91.80889265 -78.12052939 91.80889265 -80.95703125 89.91796875 C-83 88 -83 88 -83.73046875 85.21875 C-82.64046757 80.41575017 -79.74767696 77.89742777 -76.3125 74.5 C-75.05718926 73.22012602 -73.80326116 71.93889435 -72.55078125 70.65625 C-71.94572754 70.04523438 -71.34067383 69.43421875 -70.71728516 68.8046875 C-69.10279613 67.10802801 -67.62917623 65.36003997 -66.16796875 63.53125 C-65.45253906 62.6959375 -64.73710937 61.860625 -64 61 C-63.34 61 -62.68 61 -62 61 C-62 60.34 -62 59.68 -62 59 C-61.34 59 -60.68 59 -60 59 C-59.7321167 58.41065674 -59.4642334 57.82131348 -59.18823242 57.21411133 C-57.98792939 54.97750805 -56.7256895 53.41433871 -54.98828125 51.57421875 C-54.09786133 50.62579102 -54.09786133 50.62579102 -53.18945312 49.65820312 C-52.57005859 49.00787109 -51.95066406 48.35753906 -51.3125 47.6875 C-50.71244141 47.04876953 -50.11238281 46.41003906 -49.49414062 45.75195312 C-46.5401513 42.62028024 -43.5476357 39.54042075 -40.48046875 36.51953125 C-37.43370563 33.49407715 -34.61717323 30.31557011 -31.8125 27.06640625 C-27.99187973 22.71056978 -23.95273107 18.5537344 -19.9609375 14.35546875 C-16.00532005 10.17839781 -12.16461687 5.93847224 -8.4453125 1.54882812 C-5.6274664 -1.47083668 -3.80267118 -1.09539633 0 0 Z " fill="#F9F9F9" transform="translate(254,20)"/>
<path d="M0 0 C4.35550529 1.63579627 7.01848111 4.74700787 10.2323761 8.0362854 C10.96152725 8.76645874 11.69067841 9.49663208 12.44192505 10.24893188 C14.85313185 12.66802984 17.24996275 15.10088017 19.64717102 17.53384399 C21.32384975 19.22052788 23.00149157 20.90625489 24.68005371 22.59106445 C29.10303877 27.03500488 33.51433545 31.49036516 37.92286682 35.94863892 C44.96518934 43.06612827 52.0260159 50.16527179 59.08498192 57.2662468 C61.54300955 59.74188405 63.99670711 62.22174518 66.44961548 64.70245361 C67.96959247 66.23566318 69.48962443 67.76881825 71.00971985 69.3019104 C71.68375854 69.98582855 72.35779724 70.6697467 73.05226135 71.37438965 C76.85867572 75.20687637 80.78342615 78.82034381 84.87229443 82.34880447 C87.98617454 85.0870526 90.92809696 87.99023346 93.87373352 90.90713501 C94.52839096 91.55200867 95.1830484 92.19688232 95.85754395 92.86129761 C97.99232611 94.96650074 100.12312183 97.07566024 102.25263977 99.18618774 C102.98448486 99.91146101 103.71632996 100.63673428 104.47035217 101.38398552 C108.33172625 105.21295563 112.18914917 109.04586397 116.04414368 112.8812561 C119.23109503 116.05030094 122.42637387 119.21058245 125.62910461 122.36367798 C129.50949956 126.18403279 133.37510543 130.01876866 137.23045349 133.86439323 C138.69899824 135.32437019 140.17267851 136.77920028 141.65153503 138.22873116 C143.71252876 140.25098213 145.75395857 142.29118262 147.79170227 144.33682251 C148.71259895 145.22771828 148.71259895 145.22771828 149.65209961 146.13661194 C152.37741391 148.90976667 153.69179871 150.33831909 154.36322021 154.2520752 C153.76746963 157.30126864 153.19905913 158.44961208 151.06929016 160.66104126 C150.42549408 161.3419986 149.781698 162.02295593 149.11839294 162.72454834 C148.3583194 163.49435028 147.59824585 164.26415222 146.81513977 165.05728149 C145.94332062 165.9621933 145.07150146 166.8671051 144.17326355 167.79943848 C141.05695602 171.02371344 137.90555874 174.2125735 134.74873352 177.39712524 C134.17791613 177.97326632 133.60709873 178.54940739 133.01898384 179.14300728 C130.00670354 182.18181163 126.99089813 185.21707156 123.97261047 188.24990845 C121.48378324 190.7521499 119.00245934 193.26149312 116.52729797 195.7772522 C113.52176184 198.83205202 110.5041849 201.87444343 107.47747993 204.90826607 C106.3309867 206.06146602 105.18874754 207.218912 104.05094719 208.38068962 C102.46231192 210.00092406 100.85864334 211.60469142 99.2504425 213.20547485 C98.3433403 214.12066391 97.4362381 215.03585297 96.50164795 215.97877502 C93.48204529 218.31499113 91.59885327 218.88062288 87.81513977 219.05728149 C85.84394836 217.98843384 85.84394836 217.98843384 84.08857727 216.26821899 C83.41149719 215.61949829 82.73441711 214.97077759 82.03681946 214.30239868 C81.30366516 213.56151001 80.57051086 212.82062134 79.81513977 212.05728149 C78.99690735 211.2519397 78.17867493 210.4465979 77.33564758 209.61685181 C74.68499748 206.9900367 72.05958699 204.34019343 69.44013977 201.68228149 C67.66379837 199.88052749 65.88526638 198.08092967 64.10420227 196.28384399 C62.93945374 195.10169312 62.93945374 195.10169312 61.75117493 193.8956604 C59.9428802 191.99965809 59.9428802 191.99965809 57.81513977 191.05728149 C57.81513977 190.39728149 57.81513977 189.73728149 57.81513977 189.05728149 C57.27832581 188.84716431 56.74151184 188.63704712 56.18843079 188.42056274 C52.90483155 186.53437633 50.46517894 183.93301059 47.84248352 181.24478149 C47.27816116 180.67525757 46.71383881 180.10573364 46.13241577 179.51895142 C44.33432833 177.70309161 42.54308093 175.88067851 40.75263977 174.05728149 C38.95777464 172.23476607 37.16145983 170.41374139 35.3621521 168.59561157 C34.24415459 167.46539294 33.12884121 166.33251139 32.01654053 165.19668579 C29.70814319 162.85857643 27.56016003 160.887295 24.81513977 159.05728149 C24.81513977 158.39728149 24.81513977 157.73728149 24.81513977 157.05728149 C24.2701886 156.8390271 23.72523743 156.62077271 23.16377258 156.39590454 C20.0370539 154.6138049 17.72614176 152.19529769 15.23701477 149.63931274 C14.70674683 149.10384323 14.17647888 148.56837372 13.63014221 148.01667786 C11.93696921 146.30574398 10.25061769 144.58829381 8.56513977 142.86978149 C6.35504756 140.62286508 4.14173846 138.37919244 1.92451477 136.13931274 C1.38637146 135.59558014 0.84822815 135.05184753 0.29377747 134.49163818 C-3.06829708 131.11678822 -6.53526155 127.94050566 -10.16435242 124.85293579 C-15.21920173 120.36061864 -19.87452225 115.41487787 -24.62138367 110.60025024 C-29.66173882 105.49452529 -34.72848839 100.50159908 -40.18339539 95.83609009 C-44.26519981 92.20837271 -48.04282317 88.25976902 -51.87236023 84.36978149 C-53.51968005 82.69682245 -55.16934609 81.02616977 -56.82157898 79.35806274 C-57.89992004 78.26231934 -57.89992004 78.26231934 -59.00004578 77.1444397 C-61.1972719 74.97059498 -61.1972719 74.97059498 -63.89506531 72.97598267 C-66.18486023 71.05728149 -66.18486023 71.05728149 -67.18486023 68.05728149 C-66.1204071 66.38345337 -66.1204071 66.38345337 -64.40361023 64.52603149 C-63.75392273 63.82091431 -63.10423523 63.11579712 -62.43486023 62.38931274 C-57.34910476 57.11813911 -52.13888463 51.97659551 -46.92314148 46.83462524 C-42.41363113 42.36415828 -38.06657693 37.8540115 -33.93681335 33.03189087 C-29.81563264 28.38694805 -25.28251367 24.1197394 -20.85673523 19.76821899 C-15.57161546 14.53702901 -10.57484969 9.14391927 -5.82695007 3.4203186 C-2.8532884 0.07480599 -2.8532884 0.07480599 0 0 Z " fill="#F8F8F8" transform="translate(165.1848602294922,268.9427185058594)"/>
<path d="M0 0 C3.92939505 0.55993879 5.29920845 1.82603417 8.125 4.5703125 C9.40503906 5.79814453 9.40503906 5.79814453 10.7109375 7.05078125 C11.50757813 7.84097656 12.30421875 8.63117188 13.125 9.4453125 C14.10339844 10.36763672 14.10339844 10.36763672 15.1015625 11.30859375 C16.49267554 12.63707374 17.81743691 14.03452075 19.125 15.4453125 C19.125 16.1053125 19.125 16.7653125 19.125 17.4453125 C19.723125 17.7134375 20.32125 17.9815625 20.9375 18.2578125 C23.12347854 19.44448656 24.53832594 20.54130363 26.125 22.4453125 C26.125 23.1053125 26.125 23.7653125 26.125 24.4453125 C27.445 25.1053125 28.765 25.7653125 30.125 26.4453125 C30.125 27.1053125 30.125 27.7653125 30.125 28.4453125 C30.66326416 28.65687988 31.20152832 28.86844727 31.75610352 29.08642578 C35.01181948 30.95402498 37.42839048 33.52284099 40.02734375 36.1875 C40.58692276 36.75228058 41.14650177 37.31706116 41.72303772 37.8989563 C43.5076889 39.70137766 45.28551031 41.5103398 47.0625 43.3203125 C48.8367483 45.12228719 50.61247154 46.92274263 52.39125061 48.72024536 C53.49600515 49.83713723 54.59807686 50.95669134 55.69700623 52.07931519 C58.01417304 54.42631578 60.2890813 56.57575663 62.87719727 58.63330078 C65.65953546 60.87621531 66.95134707 62.61563741 67.6875 66.1328125 C66.12100169 75.35774699 53.91370693 83.71315343 47.5078125 90.0234375 C43.10165649 94.3894158 38.8690514 98.80734389 34.83203125 103.515625 C31.1324877 107.69771771 27.07011855 111.53745676 23.0859375 115.4453125 C19.099205 119.38586663 15.30872813 123.42018669 11.66796875 127.68359375 C7.56571512 132.3674327 7.56571512 132.3674327 4.2734375 132.94921875 C0.01524157 132.26769608 -1.3585079 130.5329278 -4.25 127.3828125 C-7.34841208 124.09179642 -10.41168729 120.85991105 -13.875 117.9453125 C-18.15080595 114.30036317 -22.04702535 110.30528654 -25.96875 106.2890625 C-28.78698273 103.46682447 -31.78645779 100.87611304 -34.80029297 98.26611328 C-38.17432206 95.30500373 -41.42719501 92.21796216 -44.6875 89.1328125 C-50.42687832 83.69487523 -50.42687832 83.69487523 -56.3203125 78.42578125 C-57.80144531 77.13607422 -57.80144531 77.13607422 -59.3125 75.8203125 C-60.17746094 75.08554688 -61.04242188 74.35078125 -61.93359375 73.59375 C-64.17714777 71.11094374 -64.83798488 69.78724864 -64.875 66.4453125 C-63.6875 64.453125 -63.6875 64.453125 -61.875 62.5703125 C-61.2253125 61.88195312 -60.575625 61.19359375 -59.90625 60.484375 C-59.2359375 59.81148437 -58.565625 59.13859375 -57.875 58.4453125 C-57.2871875 57.85492188 -56.699375 57.26453125 -56.09375 56.65625 C-54.93093573 55.49872125 -53.76414572 54.34517496 -52.59375 53.1953125 C-50.93273479 51.50409702 -49.40438597 49.75560609 -47.875 47.9453125 C-43.52008199 42.86791961 -38.71082647 38.23227207 -33.94140625 33.54882812 C-32.98427734 32.60426758 -32.98427734 32.60426758 -32.0078125 31.640625 C-31.42918457 31.07359863 -30.85055664 30.50657227 -30.25439453 29.92236328 C-28.77127065 28.47421084 -28.77127065 28.47421084 -27.875 26.4453125 C-27.215 26.4453125 -26.555 26.4453125 -25.875 26.4453125 C-25.54048828 25.61773437 -25.54048828 25.61773437 -25.19921875 24.7734375 C-23.45945903 21.7147449 -21.21735518 19.6379313 -18.6875 17.1953125 C-14.70640707 13.30813789 -10.91303719 9.35019639 -7.3125 5.1015625 C-6.838125 4.555 -6.36375 4.0084375 -5.875 3.4453125 C-5.441875 2.878125 -5.00875 2.3109375 -4.5625 1.7265625 C-2.875 0.4453125 -2.875 0.4453125 0 0 Z " fill="#F6F6F6" transform="translate(161.875,114.5546875)"/>
<path d="M0 0 C0.495 0.99 0.495 0.99 1 2 C-0.2375 2.061875 -1.475 2.12375 -2.75 2.1875 C-6.03090994 2.60412348 -6.80917702 2.81949178 -9.3125 5.1875 C-11.04903614 7.98244634 -11.04903614 7.98244634 -12.4375 11 C-14.19417752 14.37282084 -16.22129142 16.42461156 -19 19 C-19.9590625 20.0209375 -19.9590625 20.0209375 -20.9375 21.0625 C-23.42655863 23.40070659 -26.15868602 25.10579068 -29 27 C-31.38197498 28.94583872 -33.6998146 30.95841533 -36 33 C-34.45872649 29.28731906 -32.19156766 27.01884302 -29.3125 24.25 C-25.65895768 20.66963306 -22.19376858 17.03519467 -18.86328125 13.15625 C-16.50530561 10.42752347 -14.10281417 7.74036713 -11.6875 5.0625 C-10.84574219 4.12535156 -10.00398438 3.18820313 -9.13671875 2.22265625 C-5.87412798 -1.17115389 -4.45339416 -1.25608553 0 0 Z " fill="#BABABA" transform="translate(254,20)"/>
<path d="M0 0 C0 3 0 3 -1.3125 4.375 C-1.869375 4.91125 -2.42625 5.4475 -3 6 C-3.4021875 6.73992187 -3.804375 7.47984375 -4.21875 8.2421875 C-6.41467287 11.64201546 -9.17616776 14.10118285 -12.1875 16.75 C-16.19207227 20.37742741 -20.15859533 24.01060869 -23.875 27.9375 C-24.51179687 28.60652344 -25.14859375 29.27554688 -25.8046875 29.96484375 C-27.24462731 31.97731814 -27.24462731 31.97731814 -26.8203125 34.56640625 C-26.04547606 37.21330912 -26.04547606 37.21330912 -24 40 C-27.875 38.125 -27.875 38.125 -29 37 C-29.57416582 33.90043818 -29.58286778 31.84931504 -27.76416016 29.19921875 C-26.00947782 27.22708244 -24.18934108 25.35621645 -22.3125 23.5 C-21.05718926 22.22012602 -19.80326116 20.93889435 -18.55078125 19.65625 C-17.64320068 18.73972656 -17.64320068 18.73972656 -16.71728516 17.8046875 C-15.10279613 16.10802801 -13.62917623 14.36003997 -12.16796875 12.53125 C-11.45253906 11.6959375 -10.73710937 10.860625 -10 10 C-9.34 10 -8.68 10 -8 10 C-8 9.34 -8 8.68 -8 8 C-7.34 8 -6.68 8 -6 8 C-5.7525 7.4225 -5.505 6.845 -5.25 6.25 C-3.83316683 3.6997003 -2.12372463 1.98214299 0 0 Z " fill="#4E4E4E" transform="translate(200,71)"/>
<path d="M0 0 C0.66 0.33 1.32 0.66 2 1 C-0.71670762 3.80402557 -3.45039324 6.59089468 -6.1875 9.375 C-6.95642578 10.1690625 -7.72535156 10.963125 -8.51757812 11.78125 C-9.26845703 12.54179687 -10.01933594 13.30234375 -10.79296875 14.0859375 C-11.4789917 14.7876709 -12.16501465 15.4894043 -12.87182617 16.21240234 C-15.15129502 18.12708296 -17.19444793 19.05267073 -20 20 C-15.83201899 14.9663614 -11.45719319 10.45586145 -6.625 6.0625 C-5.98433594 5.47404297 -5.34367188 4.88558594 -4.68359375 4.27929688 C-3.12568342 2.8492747 -1.56331302 1.42411391 0 0 Z " fill="#C0C0C0" transform="translate(236,195)"/>
<path d="M0 0 C0 3 0 3 -1.86328125 5.0859375 C-2.67152344 5.84132812 -3.47976562 6.59671875 -4.3125 7.375 C-7.5470512 10.40641514 -9.74416786 13.20554322 -12 17 C-13.82421875 18.80078125 -13.82421875 18.80078125 -15.6875 20.3125 C-16.62142578 21.08013672 -16.62142578 21.08013672 -17.57421875 21.86328125 C-18.04472656 22.23839844 -18.51523438 22.61351562 -19 23 C-19.66 22.67 -20.32 22.34 -21 22 C-20.43152344 21.443125 -19.86304687 20.88625 -19.27734375 20.3125 C-14.85890196 15.94569275 -10.61905057 11.5111312 -6.57421875 6.796875 C-4.48662489 4.41401353 -2.27363401 2.20473601 0 0 Z " fill="#595959" transform="translate(123,153)"/>
<path d="M0 0 C1.32 0 2.64 0 4 0 C4.33 0.99 4.66 1.98 5 3 C5.99 3.33 6.98 3.66 8 4 C9.01363412 5.65840998 10.01112844 7.3267066 11 9 C12.68262474 10.81511488 14.41450152 12.58555343 16.1875 14.3125 C17.53908203 15.63701172 17.53908203 15.63701172 18.91796875 16.98828125 C19.60503906 17.65214844 20.29210937 18.31601562 21 19 C18 19 18 19 16.00708008 17.36352539 C15.26868896 16.61578857 14.53029785 15.86805176 13.76953125 15.09765625 C12.96708984 14.29005859 12.16464844 13.48246094 11.33789062 12.65039062 C10.50451172 11.79638672 9.67113281 10.94238281 8.8125 10.0625 C7.5450293 8.78729492 7.5450293 8.78729492 6.25195312 7.48632812 C0 1.15363953 0 1.15363953 0 0 Z " fill="#5B5B5B" transform="translate(202,438)"/>
<path d="M0 0 C4.59835567 1.79842013 7.48189753 5.48957317 10.66992188 9.09960938 C14.21899373 12.86955699 16.88275116 13.73936994 22 14 C20 16 20 16 17.3359375 16.0625 C12.56641232 14.54340064 10.0052664 11.58491718 6.625 8 C5.66400391 7.01773437 5.66400391 7.01773437 4.68359375 6.015625 C0 1.18223614 0 1.18223614 0 0 Z " fill="#7A7A7A" transform="translate(237,472)"/>
<path d="M0 0 C0.33 0.66 0.66 1.32 1 2 C-2.90361446 9.95180723 -2.90361446 9.95180723 -7 12 C-8.32 11.67 -9.64 11.34 -11 11 C-7.37 7.37 -3.74 3.74 0 0 Z " fill="#A5A5A5" transform="translate(147,128)"/>
<path d="M0 0 C0.66 0.33 1.32 0.66 2 1 C-0.17175431 3.92351542 -2.3658603 6.40299171 -5.1875 8.6875 C-8.01647233 10.69390251 -8.01647233 10.69390251 -9 13 C-9.66 13 -10.32 13 -11 13 C-11.33 13.66 -11.66 14.32 -12 15 C-12 12 -12 12 -9.375 9.08203125 C-8.25750594 7.98449244 -7.13214357 6.89492105 -6 5.8125 C-5.42765625 5.25369141 -4.8553125 4.69488281 -4.265625 4.11914062 C-2.85037212 2.73926907 -1.42602845 1.36873266 0 0 Z " fill="#EFEFEF" transform="translate(119,317)"/>
<path d="M0 0 C4.07376031 1.61010527 6.76507069 4.53822271 9.75 7.625 C10.25660156 8.140625 10.76320312 8.65625 11.28515625 9.1875 C12.52803902 10.45383339 13.76465276 11.7263144 15 13 C14.01 13.495 14.01 13.495 13 14 C10 13 10 13 8.6875 10.75 C7.14881645 8.2425157 6.11522227 7.13937553 3.875 5.375 C1 3 1 3 0 0 Z " fill="#737373" transform="translate(192,143)"/>
<path d="M0 0 C0 3 0 3 -1.3125 4.375 C-1.869375 4.91125 -2.42625 5.4475 -3 6 C-3.474375 6.825 -3.94875 7.65 -4.4375 8.5 C-6.03796923 11.06075077 -7.49756426 12.36047314 -10 14 C-10 12.68 -10 11.36 -10 10 C-9.34 10 -8.68 10 -8 10 C-8 9.34 -8 8.68 -8 8 C-7.34 8 -6.68 8 -6 8 C-5.7525 7.4225 -5.505 6.845 -5.25 6.25 C-3.83316683 3.6997003 -2.12372463 1.98214299 0 0 Z " fill="#868686" transform="translate(200,71)"/>
<path d="M0 0 C0.33 0.66 0.66 1.32 1 2 C-0.216875 2.04125 -1.43375 2.0825 -2.6875 2.125 C-6.21271475 2.53199637 -7.75280133 3.31016733 -10 6.0625 C-10.66 7.031875 -11.32 8.00125 -12 9 C-12.66 8.67 -13.32 8.34 -14 8 C-12.87895467 6.68412059 -11.75303035 5.37239647 -10.625 4.0625 C-9.99851563 3.33160156 -9.37203125 2.60070312 -8.7265625 1.84765625 C-5.74481184 -1.34322172 -4.0816031 -1.15122139 0 0 Z " fill="#727272" transform="translate(254,20)"/>
<path d="M0 0 C0.33 0.66 0.66 1.32 1 2 C-3 6 -7 10 -11 14 C-11 11 -11 11 -8.59375 8.30078125 C-7.5700032 7.29697757 -6.5383946 6.30114351 -5.5 5.3125 C-4.97535156 4.80138672 -4.45070312 4.29027344 -3.91015625 3.76367188 C-2.61339096 2.50227292 -1.30753883 1.25022788 0 0 Z " fill="#737373" transform="translate(230,39)"/>
<path d="M0 0 C0.99 0.66 1.98 1.32 3 2 C2.2575 2.4125 1.515 2.825 0.75 3.25 C-2.05084308 4.89266462 -2.05084308 4.89266462 -4.1875 7.1875 C-5.0846875 8.0846875 -5.0846875 8.0846875 -6 9 C-6.66 9 -7.32 9 -8 9 C-6.4169423 4.7257442 -3.49431596 2.73468206 0 0 Z " fill="#C7C7C7" transform="translate(221,50)"/>
<path d="M0 0 C0.99 0.33 1.98 0.66 3 1 C0.03 3.64 -2.94 6.28 -6 9 C-6.66 8.67 -7.32 8.34 -8 8 C-5.36 5.36 -2.72 2.72 0 0 Z " fill="#9C9C9C" transform="translate(110,167)"/>
<path d="M0 0 C0.66 0.33 1.32 0.66 2 1 C0.4169423 5.2742558 -2.50568404 7.26531794 -6 10 C-6.66 9.67 -7.32 9.34 -8 9 C-7.50628906 8.51789063 -7.01257813 8.03578125 -6.50390625 7.5390625 C-5.86324219 6.90742188 -5.22257813 6.27578125 -4.5625 5.625 C-3.92441406 4.99851563 -3.28632813 4.37203125 -2.62890625 3.7265625 C-0.92117824 2.08276939 -0.92117824 2.08276939 0 0 Z " fill="#969696" transform="translate(134,141)"/>
<path d="M0 0 C1.32 0 2.64 0 4 0 C4.33 0.99 4.66 1.98 5 3 C5.99 3.33 6.98 3.66 8 4 C8 4.99 8 5.98 8 7 C4.2047869 5.50902342 2.38957269 3.24299151 0 0 Z " fill="#A5A5A5" transform="translate(202,438)"/>
<path d="M0 0 C0.99 0.33 1.98 0.66 3 1 C2.625 3.4375 2.625 3.4375 2 6 C1.01 6.495 1.01 6.495 0 7 C-0.66 5.35 -1.32 3.7 -2 2 C-1.34 1.34 -0.68 0.68 0 0 Z " fill="#BCBCBC" transform="translate(409,174)"/>
<path d="M0 0 C1.98 0.495 1.98 0.495 4 1 C4 2.98 4 4.96 4 7 C2.35 5.35 0.7 3.7 -1 2 C-0.67 1.34 -0.34 0.68 0 0 Z " fill="#CCCCCC" transform="translate(131,366)"/>
<path d="M0 0 C0.66 0.33 1.32 0.66 2 1 C0.99595321 4.01214037 -0.27770745 6.34479898 -2 9 C-2.33 9 -2.66 9 -3 9 C-3.26218749 5.85375007 -3.24754367 4.38162983 -1.5 1.6875 C-1.005 1.130625 -0.51 0.57375 0 0 Z " fill="#EEEEEE" transform="translate(102,176)"/>
<path d="M0 0 C0.99 0 1.98 0 3 0 C2.67 1.65 2.34 3.3 2 5 C1.01 5 0.02 5 -1 5 C-0.67 3.35 -0.34 1.7 0 0 Z " fill="#EBEBEB" transform="translate(173,102)"/>
<path d="M0 0 C0.66 0.33 1.32 0.66 2 1 C-0.31 3.31 -2.62 5.62 -5 8 C-5 5 -5 5 -4 2 C-2.0625 0.75 -2.0625 0.75 0 0 Z " fill="#838383" transform="translate(282,461)"/>
<path d="M0 0 C2.475 0.495 2.475 0.495 5 1 C5.66 2.98 6.32 4.96 7 7 C5.68 6.34 4.36 5.68 3 5 C3 4.34 3 3.68 3 3 C2.34 3 1.68 3 1 3 C0.67 2.01 0.34 1.02 0 0 Z " fill="#8E8E8E" transform="translate(302,385)"/>
<path d="M0 0 C0.66 0.33 1.32 0.66 2 1 C2.625 4.0625 2.625 4.0625 3 7 C1.02 5.35 -0.96 3.7 -3 2 C-2.01 1.34 -1.02 0.68 0 0 Z " fill="#AFAFAF" transform="translate(138,372)"/>
<path d="M0 0 C1.65 0 3.3 0 5 0 C5.33 1.98 5.66 3.96 6 6 C3.97945196 4.35830472 1.97956942 2.69088222 0 1 C0 0.67 0 0.34 0 0 Z " fill="#ACACAC" transform="translate(231,466)"/>
<path d="M0 0 C0.66 0.33 1.32 0.66 2 1 C0.02 2.98 -1.96 4.96 -4 7 C-4.66 6.67 -5.32 6.34 -6 6 C-3.375 1.125 -3.375 1.125 0 0 Z " fill="#747474" transform="translate(378,365)"/>
<path d="M0 0 C0 3 0 3 -1.3125 4.38671875 C-2.875 5.59114583 -4.4375 6.79557292 -6 8 C-5.690625 7.401875 -5.38125 6.80375 -5.0625 6.1875 C-3.89790296 3.91043228 -3.89790296 3.91043228 -3 1 C-2.01 0.67 -1.02 0.34 0 0 Z " fill="#727272" transform="translate(370,221)"/>
</svg>
